<svg aria-hidden="true" style="position: absolute; width: 0; height: 0; overflow: hidden;" version="1.1" xmlns="http://www.w3.org/2000/svg" xmlns:xlink="http://www.w3.org/1999/xlink">
<defs>
<symbol id="icon-menu-burger" viewBox="0 0 48 32">
<path d="M0 5.333v-5.333h48v5.333h-48zM0 18.667h48v-5.333h-48v5.333zM0 32h48v-5.333h-48v5.333z"></path>
</symbol>
<symbol id="icon-Vector-2" viewBox="0 0 32 32">
<path d="M16 16c4.42 0 8-3.58 8-8s-3.58-8-8-8c-4.42 0-8 3.58-8 8s3.58 8 8 8zM16 20c-5.34 0-16 2.68-16 8v2c0 1.1 0.9 2 2 2h28c1.1 0 2-0.9 2-2v-2c0-5.32-10.66-8-16-8z"></path>
</symbol>
<symbol id="icon-Vector-1" viewBox="0 0 32 32">
<path d="M27.419 20.852l-4.201-0.48c-1.009-0.116-2.002 0.232-2.713 0.943l-3.044 3.044c-4.681-2.382-8.519-6.203-10.901-10.901l3.060-3.060c0.711-0.711 1.059-1.704 0.943-2.713l-0.48-4.168c-0.198-1.671-1.604-2.928-3.292-2.928h-2.862c-1.869 0-3.424 1.555-3.308 3.424 0.877 14.126 12.174 25.407 26.284 26.284 1.869 0.116 3.424-1.439 3.424-3.308v-2.862c0.016-1.671-1.241-3.077-2.911-3.275z"></path>
</symbol>
<symbol id="icon-Vector" viewBox="0 0 32 32">
<path d="M28 4h-24c-1.65 0-2.985 1.35-2.985 3l-0.015 18c0 1.65 1.35 3 3 3h24c1.65 0 3-1.35 3-3v-18c0-1.65-1.35-3-3-3zM27.4 10.375l-10.605 6.63c-0.48 0.3-1.11 0.3-1.59 0l-10.605-6.63c-0.375-0.24-0.6-0.645-0.6-1.080 0-1.005 1.095-1.605 1.95-1.080l10.050 6.285 10.050-6.285c0.855-0.525 1.95 0.075 1.95 1.080 0 0.435-0.225 0.84-0.6 1.080z"></path>
</symbol>
<symbol id="icon-icon-send" viewBox="0 0 32 32">
<path fill="#fff" style="fill: var(--color1, #fff)" d="M32 0l-32 18 10.227 3.788 15.773-14.788-11.998 16.186 0.010 0.004-0.012-0.004v8.814l5.735-6.691 7.265 2.691 5-28z"></path>
</symbol>
<symbol id="icon-icon-check" viewBox="0 0 32 32">
<path fill="#fff" style="fill: var(--color1, #fff); stroke: var(--color1, #fff)" stroke="#fff" stroke-linejoin="miter" stroke-linecap="butt" stroke-miterlimit="4" stroke-width="0.4" d="M7.914 16.503l-0.138-0.131-2.067 1.958 7.282 6.947 15.298-14.594-2.053-1.959-13.245 12.623-5.077-4.844z"></path>
</symbol>
<symbol id="icon-group-3" viewBox="0 0 34 32">
<path fill="#afb1b8" style="fill: var(--color2, #afb1b8)" d="M5.643 31.315c0.012 0 0.024 0.003 0.035 0.007s0.021 0.011 0.029 0.018l0.166 0.159c-0.129 0.129-0.288 0.231-0.467 0.302-0.21 0.076-0.435 0.113-0.663 0.108-0.213 0.004-0.426-0.031-0.623-0.101-0.178-0.065-0.338-0.162-0.469-0.285-0.134-0.128-0.237-0.278-0.303-0.44-0.073-0.182-0.108-0.373-0.106-0.565-0.003-0.193 0.036-0.386 0.114-0.567 0.073-0.164 0.182-0.314 0.322-0.44 0.142-0.124 0.312-0.222 0.499-0.287 0.205-0.069 0.422-0.103 0.642-0.101 0.204-0.004 0.407 0.027 0.596 0.092 0.165 0.062 0.316 0.148 0.447 0.255l-0.139 0.17c-0.010 0.012-0.022 0.022-0.035 0.031-0.016 0.010-0.036 0.014-0.056 0.013-0.022-0.001-0.042-0.008-0.060-0.018l-0.075-0.045-0.104-0.058c-0.045-0.021-0.091-0.040-0.139-0.056-0.062-0.019-0.125-0.034-0.189-0.045-0.082-0.013-0.164-0.019-0.247-0.018-0.158-0.002-0.315 0.024-0.461 0.076-0.136 0.048-0.26 0.121-0.361 0.213-0.104 0.098-0.183 0.214-0.235 0.339-0.058 0.144-0.087 0.295-0.085 0.448-0.002 0.155 0.026 0.309 0.085 0.455 0.051 0.125 0.129 0.239 0.231 0.338 0.095 0.092 0.213 0.163 0.345 0.209 0.136 0.049 0.281 0.073 0.428 0.072 0.085 0.001 0.17-0.004 0.253-0.014 0.137-0.015 0.268-0.056 0.384-0.121 0.058-0.033 0.113-0.071 0.164-0.112 0.021-0.018 0.049-0.028 0.079-0.029z"></path>
<path fill="#afb1b8" style="fill: var(--color2, #afb1b8)" d="M10.441 30.517c0.003 0.192-0.035 0.382-0.112 0.561-0.068 0.163-0.174 0.311-0.313 0.436s-0.306 0.222-0.491 0.286c-0.407 0.135-0.856 0.135-1.263 0-0.184-0.065-0.35-0.163-0.488-0.287-0.138-0.127-0.246-0.276-0.316-0.44-0.15-0.364-0.15-0.761 0-1.125 0.071-0.164 0.178-0.314 0.316-0.442 0.139-0.12 0.305-0.214 0.488-0.276 0.406-0.137 0.857-0.137 1.263 0 0.185 0.065 0.351 0.163 0.49 0.287 0.137 0.125 0.243 0.273 0.314 0.435 0.077 0.181 0.115 0.372 0.112 0.565zM10.005 30.517c0.003-0.153-0.023-0.306-0.079-0.451-0.047-0.125-0.122-0.239-0.222-0.338-0.097-0.093-0.217-0.166-0.351-0.213-0.296-0.099-0.623-0.099-0.918 0-0.134 0.047-0.254 0.12-0.351 0.213-0.101 0.097-0.178 0.212-0.224 0.338-0.106 0.294-0.106 0.609 0 0.903 0.047 0.125 0.123 0.24 0.224 0.338 0.098 0.092 0.217 0.164 0.351 0.211 0.296 0.096 0.622 0.096 0.918 0 0.134-0.047 0.254-0.119 0.351-0.211 0.1-0.098 0.175-0.213 0.222-0.338 0.056-0.145 0.082-0.298 0.079-0.451z"></path>
<path fill="#afb1b8" style="fill: var(--color2, #afb1b8)" d="M13.715 30.99l0.044 0.101c0.017-0.036 0.031-0.069 0.048-0.101 0.016-0.034 0.034-0.067 0.054-0.099l1.062-1.677c0.021-0.029 0.039-0.047 0.060-0.052 0.028-0.007 0.058-0.011 0.087-0.009h0.314v2.727h-0.372v-2.005c0-0.025 0-0.054 0-0.085-0.002-0.031-0.002-0.063 0-0.094l-1.068 1.7c-0.014 0.025-0.035 0.047-0.063 0.062s-0.059 0.023-0.091 0.023h-0.060c-0.032 0-0.064-0.007-0.091-0.022s-0.049-0.037-0.062-0.062l-1.099-1.711c0 0.032 0 0.065 0 0.097s0 0.061 0 0.087v2.005h-0.359v-2.722h0.314c0.030-0.002 0.059 0.002 0.087 0.009 0.026 0.011 0.046 0.030 0.058 0.052l1.084 1.678c0.021 0.031 0.039 0.064 0.054 0.097z"></path>
<path fill="#afb1b8" style="fill: var(--color2, #afb1b8)" d="M17.71 30.855v1.021h-0.415v-2.723h0.926c0.175-0.003 0.349 0.017 0.517 0.059 0.134 0.033 0.259 0.091 0.366 0.17 0.092 0.074 0.163 0.165 0.208 0.267 0.049 0.111 0.073 0.229 0.071 0.348 0.002 0.119-0.024 0.238-0.077 0.348-0.050 0.104-0.127 0.198-0.224 0.273-0.107 0.082-0.232 0.143-0.368 0.18-0.162 0.045-0.331 0.066-0.501 0.063l-0.503-0.007zM17.71 30.562h0.503c0.109 0.001 0.218-0.013 0.322-0.041 0.086-0.025 0.165-0.065 0.233-0.117 0.062-0.050 0.111-0.112 0.141-0.18 0.034-0.073 0.051-0.151 0.050-0.229 0.005-0.076-0.009-0.151-0.042-0.222s-0.082-0.134-0.145-0.186c-0.159-0.108-0.358-0.16-0.559-0.146h-0.503v1.122z"></path>
<path fill="#afb1b8" style="fill: var(--color2, #afb1b8)" d="M23.294 31.88h-0.328c-0.033 0.001-0.065-0.008-0.091-0.025-0.024-0.017-0.042-0.039-0.054-0.063l-0.282-0.659h-1.419l-0.293 0.659c-0.011 0.024-0.029 0.045-0.052 0.061-0.026 0.018-0.060 0.028-0.093 0.027h-0.328l1.246-2.727h0.432l1.263 2.727zM21.237 30.867h1.172l-0.494-1.11c-0.038-0.084-0.069-0.169-0.093-0.256l-0.048 0.143c-0.014 0.043-0.031 0.083-0.046 0.116l-0.49 1.108z"></path>
<path fill="#afb1b8" style="fill: var(--color2, #afb1b8)" d="M25.089 29.165c0.025 0.012 0.046 0.029 0.062 0.049l1.818 2.056c0-0.032 0-0.065 0-0.096s0-0.061 0-0.090v-1.931h0.372v2.727h-0.208c-0.030 0.001-0.059-0.005-0.085-0.016-0.026-0.013-0.048-0.030-0.067-0.050l-1.816-2.054c0.002 0.031 0.002 0.063 0 0.094 0 0.031 0 0.058 0 0.083v1.944h-0.372v-2.727h0.22c0.026-0.001 0.051 0.004 0.075 0.013z"></path>
<path fill="#afb1b8" style="fill: var(--color2, #afb1b8)" d="M30.402 30.795v1.083h-0.415v-1.083l-1.149-1.642h0.372c0.032-0.002 0.064 0.007 0.089 0.023 0.023 0.018 0.042 0.038 0.056 0.061l0.719 1.059c0.029 0.045 0.054 0.087 0.075 0.126s0.037 0.078 0.052 0.116l0.054-0.117c0.020-0.043 0.044-0.084 0.071-0.125l0.708-1.067c0.015-0.021 0.033-0.041 0.054-0.058 0.025-0.019 0.057-0.028 0.089-0.027h0.376l-1.151 1.65z"></path>
<path fill="#afb1b8" style="fill: var(--color2, #afb1b8)" d="M13.51 24.576c0.181 0.020 0.364 0.036 0.548 0.051 2.803-1.089 5.174-2.873 6.817-5.126s2.485-4.878 2.421-7.546l-3.089-2.684c0.628 2.84 0.334 5.776-0.849 8.479s-3.208 5.067-5.849 6.827z"></path>
<path fill="#afb1b8" style="fill: var(--color2, #afb1b8)" d="M12.407 24.451l0.083 0.014c2.822-1.754 4.974-4.203 6.176-7.030s1.402-5.904 0.571-8.83l-4.4-3.823c1.78 3.142 2.496 6.659 2.066 10.141s-1.989 6.786-4.496 9.528z"></path>
<path fill="#afb1b8" style="fill: var(--color2, #afb1b8)" d="M27.328 15.106c-0.747 2.931-2.563 5.574-5.177 7.537-0.763 0.576-1.587 1.090-2.46 1.534 2.128-0.544 4.085-1.504 5.718-2.809s2.9-2.917 3.703-4.714l-1.784-1.549z"></path>
<path fill="#afb1b8" style="fill: var(--color2, #afb1b8)" d="M26.628 14.674l-2.541-2.207c-0.049 2.517-0.872 4.976-2.385 7.123s-3.66 3.902-6.217 5.084h0.012c0.57-0 1.139-0.030 1.705-0.088 2.39-0.848 4.502-2.196 6.147-3.926s2.771-3.785 3.278-5.985z"></path>
<path fill="#afb1b8" style="fill: var(--color2, #afb1b8)" d="M12.774 3.17l-3.031-2.637c-2.709 0.91-5.040 2.509-6.686 4.588s-2.531 4.542-2.54 7.066v0c0.010 2.789 1.090 5.495 3.070 7.69s4.745 3.754 7.859 4.43c2.78-2.942 4.407-6.579 4.646-10.38s-0.924-7.569-3.319-10.757z"></path>
<path fill="#afb1b8" style="fill: var(--color2, #afb1b8)" d="M33.63 14.268c-0.011-3.309-1.529-6.479-4.221-8.818s-6.342-3.658-10.15-3.668c-1.76-0.002-3.504 0.281-5.146 0.832l18.557 16.123c0.635-1.425 0.961-2.94 0.96-4.469z"></path>
</symbol>
<symbol id="icon-group-2" viewBox="0 0 25 32">
<path fill="#afb1b8" style="fill: var(--color2, #afb1b8)" d="M10.531 1.806h-0.084c-0.129-0.008-0.258-0.011-0.388-0.014v0h-0.28c-0.244 0-0.494 0.006-0.741 0.019-0.019-0.001-0.037-0.001-0.056 0-2.243 0.127-4.44 0.688-6.471 1.651l-0.266 0.128v13.625l0.623-0.211c0.546-0.188 1.129-0.357 1.731-0.513 1.629-0.418 3.301-0.64 4.982-0.662v1.79c-0.223 0.002-0.439 0.008-0.655 0.019h-0.051c-1.294 0.071-2.577 0.268-3.833 0.588-1.59 0.398-3.124 0.996-4.566 1.779v-17.475c1.497-0.873 3.11-1.529 4.79-1.948 1.475-0.381 2.992-0.576 4.515-0.582h0.263c0.314 0.008 0.621 0.022 0.909 0.044 0.759 0.053 1.511 0.173 2.249 0.358v1.762c-0.717-0.167-1.445-0.277-2.179-0.329-0.015-0.001-0.030-0.003-0.045-0.004-0.152-0.013-0.304-0.026-0.446-0.026zM13.633 3.607c0.391 0.030 0.796 0.044 1.205 0.044 1.601-0.006 3.195-0.21 4.747-0.609 1.589-0.4 3.123-0.998 4.564-1.781v17.163c-1.498 0.873-3.111 1.529-4.792 1.948-1.475 0.379-2.992 0.574-4.515 0.581-1.154 0.009-2.304-0.126-3.425-0.404v-17.275c0.265 0.061 0.537 0.117 0.814 0.164 0.455 0.077 0.934 0.133 1.401 0.167zM22.367 3.74l-0.623 0.21c-0.573 0.192-1.15 0.365-1.731 0.518-1.691 0.434-3.428 0.657-5.173 0.663-0.406 0-0.78-0.011-1.141-0.034l-0.497-0.033v14.017l0.427 0.038c0.395 0.034 0.803 0.052 1.214 0.052 1.374-0.006 2.743-0.183 4.074-0.527 1.096-0.275 2.162-0.658 3.184-1.144l0.266-0.128v-13.63z"></path>
<path fill="#afb1b8" style="fill: var(--color2, #afb1b8)" d="M1.684 25.977c-0.090-0.093-0.197-0.166-0.317-0.214s-0.247-0.071-0.376-0.066c-0.137-0.002-0.273 0.024-0.4 0.075-0.117 0.046-0.222 0.116-0.311 0.205s-0.156 0.196-0.201 0.313c-0.049 0.123-0.073 0.254-0.072 0.387v2.335c-0.006 0.165 0.026 0.328 0.092 0.479 0.055 0.12 0.135 0.226 0.233 0.313 0.093 0.079 0.203 0.135 0.321 0.166 0.114 0.032 0.231 0.048 0.349 0.049 0.13 0.001 0.259-0.027 0.377-0.081 0.117-0.051 0.222-0.124 0.311-0.216 0.087-0.091 0.156-0.197 0.204-0.313 0.050-0.118 0.075-0.244 0.075-0.372v-0.261h-0.61v0.208c0.002 0.071-0.010 0.142-0.036 0.208-0.020 0.050-0.050 0.095-0.089 0.131-0.038 0.031-0.081 0.053-0.128 0.067-0.041 0.014-0.084 0.021-0.128 0.022-0.054 0.006-0.11-0.002-0.16-0.024s-0.094-0.057-0.126-0.101c-0.058-0.094-0.086-0.203-0.081-0.313v-2.177c-0.004-0.121 0.022-0.241 0.075-0.349 0.032-0.049 0.077-0.089 0.129-0.114s0.112-0.034 0.17-0.027c0.053-0.002 0.105 0.009 0.152 0.032s0.089 0.057 0.12 0.099c0.068 0.090 0.104 0.2 0.101 0.313v0.202h0.604v-0.238c0.001-0.14-0.024-0.278-0.075-0.408-0.045-0.122-0.114-0.234-0.204-0.329z"></path>
<path fill="#afb1b8" style="fill: var(--color2, #afb1b8)" d="M5.31 25.95c-0.195-0.164-0.44-0.255-0.694-0.257-0.124 0-0.248 0.023-0.364 0.066-0.119 0.042-0.228 0.107-0.322 0.191-0.101 0.091-0.182 0.202-0.237 0.327-0.061 0.143-0.092 0.297-0.089 0.452v2.239c-0.004 0.158 0.026 0.314 0.089 0.459 0.055 0.12 0.136 0.227 0.237 0.313 0.093 0.087 0.203 0.154 0.322 0.197 0.117 0.043 0.24 0.065 0.364 0.066s0.248-0.023 0.364-0.066c0.121-0.044 0.233-0.111 0.33-0.197 0.097-0.087 0.176-0.194 0.23-0.313 0.063-0.145 0.093-0.301 0.089-0.459v-2.239c0.003-0.155-0.027-0.31-0.089-0.452-0.054-0.123-0.133-0.235-0.23-0.327zM5.025 28.969c0.005 0.060-0.003 0.12-0.024 0.176s-0.054 0.107-0.097 0.148c-0.081 0.068-0.182 0.105-0.287 0.105s-0.207-0.037-0.287-0.105c-0.043-0.041-0.076-0.092-0.097-0.148s-0.029-0.116-0.024-0.176v-2.239c-0.005-0.060 0.003-0.12 0.024-0.176s0.054-0.107 0.097-0.148c0.081-0.068 0.182-0.105 0.287-0.105s0.207 0.037 0.287 0.105c0.043 0.041 0.076 0.092 0.097 0.148s0.029 0.116 0.024 0.176v2.239z"></path>
<path fill="#afb1b8" style="fill: var(--color2, #afb1b8)" d="M10.072 29.969v-4.239h-0.587l-0.771 2.244h-0.011l-0.777-2.244h-0.581v4.239h0.606v-2.579h0.011l0.593 1.823h0.302l0.598-1.823h0.011v2.579h0.606z"></path>
<path fill="#afb1b8" style="fill: var(--color2, #afb1b8)" d="M13.513 26.027c-0.093-0.105-0.211-0.184-0.343-0.232-0.142-0.046-0.29-0.068-0.439-0.066h-0.9v4.239h0.604v-1.656h0.311c0.188 0.009 0.376-0.031 0.545-0.116 0.137-0.076 0.252-0.188 0.332-0.324 0.070-0.113 0.117-0.238 0.139-0.369 0.024-0.16 0.035-0.321 0.033-0.482 0.006-0.204-0.014-0.407-0.059-0.606-0.040-0.147-0.117-0.281-0.223-0.39zM13.201 27.319c-0.003 0.077-0.022 0.152-0.056 0.221-0.035 0.065-0.089 0.117-0.156 0.149-0.089 0.040-0.187 0.058-0.285 0.053h-0.275v-1.441h0.311c0.094-0.005 0.187 0.014 0.272 0.053 0.062 0.036 0.112 0.091 0.142 0.157 0.033 0.074 0.051 0.155 0.053 0.236 0 0.089 0 0.183 0 0.282s0.006 0.2 0 0.291h-0.006z"></path>
<path fill="#afb1b8" style="fill: var(--color2, #afb1b8)" d="M16.374 25.73h-0.495l-0.934 4.239h0.604l0.177-0.911h0.823l0.177 0.911h0.604l-0.957-4.239zM15.817 28.481l0.297-1.537h0.011l0.296 1.537h-0.604z"></path>
<path fill="#afb1b8" style="fill: var(--color2, #afb1b8)" d="M20.277 28.284h-0.011l-0.912-2.554h-0.581v4.239h0.604v-2.549h0.012l0.923 2.549h0.568v-4.239h-0.604v2.554z"></path>
<path fill="#afb1b8" style="fill: var(--color2, #afb1b8)" d="M23.968 25.73l-0.486 1.685h-0.012l-0.486-1.685h-0.64l0.83 2.447v1.792h0.604v-1.792l0.83-2.447h-0.64z"></path>
<path fill="#afb1b8" style="fill: var(--color2, #afb1b8)" d="M0 31.166h0.291v0.817h0.198v-0.817h0.29v-0.167h-0.778v0.167z"></path>
<path fill="#afb1b8" style="fill: var(--color2, #afb1b8)" d="M2.447 30.998l-0.381 0.984h0.21l0.081-0.224h0.392l0.084 0.224h0.215l-0.391-0.984h-0.21zM2.416 31.593l0.134-0.365 0.134 0.365h-0.268z"></path>
<path fill="#afb1b8" style="fill: var(--color2, #afb1b8)" d="M4.866 31.62h0.227v0.127c-0.066 0.053-0.149 0.082-0.234 0.083-0.040 0.002-0.079-0.005-0.116-0.021s-0.068-0.041-0.093-0.072c-0.052-0.075-0.078-0.165-0.073-0.257 0-0.219 0.095-0.329 0.283-0.329 0.050-0.005 0.099 0.008 0.14 0.037s0.070 0.071 0.082 0.12l0.195-0.038c-0.042-0.192-0.181-0.289-0.417-0.289-0.127-0.003-0.25 0.042-0.344 0.127-0.050 0.049-0.088 0.108-0.112 0.174s-0.034 0.135-0.029 0.205c-0.006 0.135 0.039 0.267 0.126 0.369 0.048 0.050 0.107 0.088 0.171 0.113s0.134 0.035 0.203 0.031c0.154 0.004 0.304-0.052 0.417-0.157v-0.388h-0.427v0.166z"></path>
<path fill="#afb1b8" style="fill: var(--color2, #afb1b8)" d="M7.337 30.998h-0.199v0.984h0.69v-0.167h-0.49v-0.817z"></path>
<path fill="#afb1b8" style="fill: var(--color2, #afb1b8)" d="M9.426 30.998h-0.199v0.984h0.199v-0.984z"></path>
<path fill="#afb1b8" style="fill: var(--color2, #afb1b8)" d="M11.469 31.656l-0.403-0.657h-0.193v0.984h0.185v-0.643l0.395 0.643h0.198v-0.984h-0.182v0.657z"></path>
<path fill="#afb1b8" style="fill: var(--color2, #afb1b8)" d="M13.315 31.549h0.49v-0.167h-0.49v-0.216h0.528v-0.167h-0.727v0.984h0.747v-0.167h-0.548v-0.266z"></path>
<path fill="#afb1b8" style="fill: var(--color2, #afb1b8)" d="M17.792 31.387h-0.388v-0.388h-0.198v0.984h0.198v-0.43h0.388v0.43h0.198v-0.984h-0.198v0.388z"></path>
<path fill="#afb1b8" style="fill: var(--color2, #afb1b8)" d="M19.649 31.549h0.492v-0.167h-0.492v-0.216h0.529v-0.167h-0.727v0.984h0.746v-0.167h-0.548v-0.266z"></path>
<path fill="#afb1b8" style="fill: var(--color2, #afb1b8)" d="M22.168 31.549c0.171-0.027 0.258-0.117 0.258-0.274 0.005-0.042-0.001-0.084-0.018-0.123s-0.044-0.072-0.078-0.096c-0.089-0.045-0.189-0.065-0.288-0.058h-0.417v0.984h0.198v-0.412h0.039c0.042-0.003 0.084 0.005 0.123 0.022 0.029 0.018 0.053 0.043 0.070 0.072l0.215 0.313h0.237l-0.12-0.192c-0.053-0.095-0.128-0.176-0.218-0.236zM21.969 31.413h-0.146v-0.247h0.156c0.068-0.005 0.136 0.002 0.201 0.023 0.014 0.013 0.026 0.029 0.033 0.046s0.011 0.037 0.010 0.056c-0.001 0.019-0.006 0.038-0.015 0.055s-0.022 0.032-0.037 0.043c-0.065 0.020-0.133 0.028-0.201 0.023z"></path>
<path fill="#afb1b8" style="fill: var(--color2, #afb1b8)" d="M24.067 31.549h0.49v-0.167h-0.49v-0.216h0.529v-0.167h-0.729v0.984h0.747v-0.167h-0.548v-0.266z"></path>
</symbol>
<symbol id="icon-group-1" viewBox="0 0 28 32">
<path fill="#afb1b8" style="fill: var(--color2, #afb1b8)" d="M4.085 0l4.771 4.517-8.856-0.005v21.915h23.149v-8.379l4.766 4.512v-22.559h-23.83zM22.939 17.517l-13.528-12.807h13.528v12.807zM18.739 23.221h-15.076v-14.739h1.066v13.741h14.010v0.998zM7.223 29.344l-0.557 1.147-0.557-1.147h-0.467l0.813 1.529v0.891h0.422v-0.891l0.811-1.529h-0.465zM7.923 31.764l0.196-0.563h0.938l0.198 0.563h0.439l-0.916-2.42h-0.377l-0.914 2.42h0.437zM8.588 29.858l0.351 1.004h-0.701l0.351-1.004zM10.805 30.804c-0.061 0.093-0.091 0.196-0.091 0.307 0 0.204 0.072 0.37 0.214 0.497 0.144 0.126 0.336 0.189 0.575 0.189s0.445-0.065 0.618-0.194l0.136 0.161h0.469l-0.356-0.421c0.14-0.191 0.209-0.435 0.209-0.733h-0.351c0 0.163-0.034 0.311-0.101 0.444l-0.467-0.552 0.165-0.12c0.116-0.084 0.2-0.168 0.251-0.253 0.051-0.085 0.076-0.178 0.076-0.279 0-0.153-0.056-0.281-0.17-0.384-0.112-0.104-0.256-0.156-0.432-0.156-0.195 0-0.35 0.055-0.465 0.166-0.115 0.11-0.173 0.259-0.173 0.449 0 0.078 0.018 0.158 0.055 0.241 0.038 0.083 0.104 0.184 0.198 0.303-0.18 0.129-0.3 0.24-0.361 0.334zM11.897 31.339c-0.119 0.091-0.246 0.136-0.382 0.136-0.121 0-0.217-0.035-0.289-0.105s-0.108-0.161-0.108-0.273c0-0.13 0.067-0.245 0.2-0.346l0.052-0.037 0.529 0.623zM11.463 30.267c-0.114-0.141-0.171-0.258-0.171-0.351 0-0.081 0.023-0.148 0.070-0.201s0.109-0.080 0.188-0.080c0.073 0 0.133 0.023 0.181 0.068 0.048 0.044 0.072 0.098 0.072 0.161 0 0.095-0.034 0.173-0.103 0.234l-0.052 0.042-0.184 0.126zM15.403 31.581c0.166-0.145 0.262-0.347 0.286-0.605h-0.419c-0.022 0.173-0.075 0.296-0.158 0.371s-0.207 0.111-0.372 0.111c-0.181 0-0.318-0.069-0.412-0.206-0.093-0.137-0.14-0.337-0.14-0.598v-0.214c0.002-0.258 0.052-0.454 0.15-0.587 0.099-0.134 0.239-0.201 0.422-0.201 0.157 0 0.277 0.039 0.357 0.116 0.082 0.076 0.133 0.202 0.153 0.376h0.419c-0.027-0.265-0.121-0.47-0.284-0.615s-0.378-0.218-0.645-0.218c-0.198 0-0.373 0.047-0.525 0.141-0.151 0.094-0.267 0.228-0.347 0.402s-0.121 0.375-0.121 0.603v0.226c0.003 0.223 0.045 0.418 0.125 0.587s0.193 0.299 0.339 0.391c0.147 0.091 0.317 0.136 0.51 0.136 0.276 0 0.497-0.072 0.663-0.216zM17.875 31.242c0.082-0.18 0.123-0.388 0.123-0.625v-0.135c-0.001-0.236-0.043-0.443-0.126-0.62-0.083-0.178-0.201-0.315-0.354-0.409-0.152-0.095-0.326-0.143-0.524-0.143s-0.372 0.048-0.525 0.145c-0.152 0.095-0.27 0.233-0.354 0.414-0.083 0.181-0.125 0.389-0.125 0.625v0.136c0.001 0.232 0.043 0.436 0.126 0.613 0.084 0.177 0.203 0.314 0.356 0.411 0.154 0.095 0.329 0.143 0.525 0.143 0.198 0 0.373-0.048 0.525-0.143 0.153-0.096 0.27-0.234 0.352-0.412zM17.424 29.874c0.102 0.143 0.153 0.349 0.153 0.617v0.126c0 0.273-0.050 0.48-0.151 0.622-0.1 0.142-0.243 0.213-0.429 0.213-0.184 0-0.328-0.073-0.432-0.218-0.103-0.145-0.155-0.351-0.155-0.617v-0.14c0.002-0.26 0.054-0.462 0.156-0.603 0.103-0.143 0.245-0.214 0.427-0.214 0.186 0 0.33 0.072 0.43 0.214z"></path>
</symbol>
<symbol id="icon-linkedin" viewBox="0 0 32 32">
<path fill="#afb1b8" style="fill: var(--color2, #afb1b8)" d="M31.992 32v-0.001h0.008v-11.736c0-5.741-1.236-10.164-7.948-10.164-3.227 0-5.392 1.771-6.276 3.449h-0.093v-2.913h-6.364v21.364h6.627v-10.579c0-2.785 0.528-5.479 3.977-5.479 3.399 0 3.449 3.179 3.449 5.657v10.401h6.62z"></path>
<path fill="#afb1b8" style="fill: var(--color2, #afb1b8)" d="M0.528 10.636h6.635v21.364h-6.635v-21.364z"></path>
<path fill="#afb1b8" style="fill: var(--color2, #afb1b8)" d="M3.843 0c-2.121 0-3.843 1.721-3.843 3.843s1.721 3.879 3.843 3.879c2.121 0 3.843-1.757 3.843-3.879-0.001-2.121-1.723-3.843-3.843-3.843v0z"></path>
</symbol>
<symbol id="icon-facebook" viewBox="0 0 32 32">
<path fill="#afb1b8" style="fill: var(--color2, #afb1b8)" d="M21.329 5.313h2.921v-5.088c-0.504-0.069-2.237-0.225-4.256-0.225-4.212 0-7.097 2.649-7.097 7.519v4.481h-4.648v5.688h4.648v14.312h5.699v-14.311h4.46l0.708-5.688h-5.169v-3.919c0.001-1.644 0.444-2.769 2.735-2.769z"></path>
</symbol>
<symbol id="icon-twiter" viewBox="0 0 36 32">
<path fill="#afb1b8" style="fill: var(--color2, #afb1b8)" d="M35.556 4.976c-1.322 0.58-2.731 0.964-4.2 1.151 1.511-0.902 2.665-2.32 3.207-4.029-1.409 0.84-2.964 1.433-4.622 1.764-1.338-1.424-3.244-2.307-5.324-2.307-4.035 0-7.284 3.276-7.284 7.291 0 0.578 0.049 1.133 0.169 1.662-6.060-0.296-11.422-3.2-15.024-7.624-0.629 1.091-0.998 2.34-0.998 3.684 0 2.524 1.3 4.762 3.238 6.058-1.171-0.022-2.32-0.362-3.293-0.898 0 0.022 0 0.051 0 0.080 0 3.542 2.527 6.484 5.84 7.162-0.593 0.162-1.24 0.24-1.911 0.24-0.467 0-0.938-0.026-1.38-0.124 0.944 2.887 3.624 5.009 6.811 5.078-2.48 1.94-5.629 3.109-9.038 3.109-0.598 0-1.171-0.026-1.744-0.1 3.229 2.082 7.056 3.271 11.182 3.271 13.413 0 20.747-11.111 20.747-20.742 0-0.322-0.011-0.633-0.027-0.942 1.447-1.027 2.662-2.309 3.653-3.784z"></path>
</symbol>
<symbol id="icon-instagram" viewBox="0 0 32 32">
<path fill="#afb1b8" style="fill: var(--color2, #afb1b8)" d="M31.969 9.408c-0.075-1.7-0.35-2.869-0.744-3.882-0.406-1.075-1.032-2.038-1.851-2.838-0.8-0.813-1.769-1.444-2.832-1.844-1.019-0.394-2.182-0.669-3.882-0.744-1.713-0.081-2.257-0.1-6.601-0.1s-4.888 0.019-6.595 0.094c-1.7 0.075-2.869 0.35-3.882 0.744-1.075 0.406-2.038 1.031-2.838 1.85-0.813 0.8-1.444 1.769-1.844 2.832-0.394 1.019-0.669 2.182-0.744 3.882-0.081 1.713-0.1 2.257-0.1 6.601s0.019 4.888 0.094 6.595c0.075 1.7 0.35 2.869 0.744 3.882 0.406 1.075 1.038 2.038 1.85 2.838 0.8 0.813 1.769 1.444 2.832 1.844 1.019 0.394 2.182 0.669 3.882 0.744 1.706 0.075 2.25 0.094 6.595 0.094s4.888-0.019 6.595-0.094c1.7-0.075 2.869-0.35 3.882-0.744 2.151-0.832 3.851-2.532 4.682-4.682 0.394-1.019 0.669-2.182 0.744-3.882 0.075-1.707 0.094-2.251 0.094-6.595s-0.006-4.888-0.081-6.595zM29.087 22.473c-0.069 1.563-0.331 2.407-0.55 2.969-0.538 1.394-1.644 2.5-3.038 3.038-0.563 0.219-1.413 0.481-2.969 0.55-1.688 0.075-2.194 0.094-6.464 0.094s-4.782-0.019-6.464-0.094c-1.563-0.069-2.407-0.331-2.969-0.55-0.694-0.256-1.325-0.663-1.838-1.194-0.531-0.519-0.938-1.144-1.194-1.838-0.219-0.563-0.481-1.413-0.55-2.969-0.075-1.688-0.094-2.194-0.094-6.464s0.019-4.782 0.094-6.464c0.069-1.563 0.331-2.407 0.55-2.969 0.256-0.694 0.663-1.325 1.2-1.838 0.519-0.531 1.144-0.938 1.838-1.194 0.563-0.219 1.413-0.481 2.969-0.55 1.688-0.075 2.194-0.094 6.464-0.094 4.276 0 4.782 0.019 6.464 0.094 1.563 0.069 2.407 0.331 2.969 0.55 0.694 0.256 1.325 0.662 1.838 1.194 0.531 0.519 0.938 1.144 1.194 1.838 0.219 0.563 0.481 1.413 0.55 2.969 0.075 1.688 0.094 2.194 0.094 6.464s-0.019 4.77-0.094 6.458z"></path>
<path fill="#afb1b8" style="fill: var(--color2, #afb1b8)" d="M16.059 7.783c-4.538 0-8.22 3.682-8.22 8.22s3.682 8.22 8.22 8.22c4.539 0 8.22-3.682 8.22-8.22s-3.682-8.22-8.22-8.22zM16.059 21.335c-2.944 0-5.332-2.388-5.332-5.332s2.388-5.332 5.332-5.332c2.944 0 5.332 2.388 5.332 5.332s-2.388 5.332-5.332 5.332z"></path>
<path fill="#afb1b8" style="fill: var(--color2, #afb1b8)" d="M26.524 7.458c0 1.060-0.859 1.919-1.919 1.919s-1.919-0.859-1.919-1.919c0-1.060 0.859-1.919 1.919-1.919s1.919 0.859 1.919 1.919z"></path>
</symbol>
<symbol id="icon-WebStudio" viewBox="0 0 230 32">
<path fill="#2196f3" style="fill: var(--color3, #2196f3)" d="M13.187 0.947h5.325l3.37 9.776 3.411-9.776h5.283l-5.075 13.437 3.744 9.402 8.362-22.922h6.24l-11.814 29.536h-4.95l-5.2-12.397-5.158 12.397h-4.95l-11.773-29.536h6.157l8.403 22.922 3.661-9.402-5.034-13.437zM54.763 30.816c-2.357 0-4.396-0.513-6.115-1.539-1.692-1.026-3.009-2.385-3.952-4.077-0.943-1.72-1.414-3.578-1.414-5.574 0-2.052 0.458-3.938 1.373-5.658 0.943-1.747 2.274-3.134 3.994-4.16 1.719-1.054 3.772-1.581 6.157-1.581s4.423 0.527 6.115 1.581c1.692 1.026 2.981 2.399 3.869 4.118 0.915 1.692 1.373 3.522 1.373 5.491 0 0.721-0.042 1.345-0.125 1.872h-16.848c0.139 1.692 0.763 3.023 1.872 3.994 1.137 0.971 2.44 1.456 3.91 1.456 1.109 0 2.149-0.264 3.12-0.79 0.998-0.555 1.678-1.276 2.038-2.163l4.784 1.331c-0.804 1.664-2.094 3.037-3.869 4.118-1.775 1.054-3.869 1.581-6.282 1.581zM49.064 17.754h11.398c-0.166-1.636-0.79-2.954-1.872-3.952-1.054-1.026-2.344-1.539-3.869-1.539-1.498 0-2.787 0.513-3.869 1.539-1.054 0.998-1.65 2.316-1.789 3.952zM83.202 30.816c-1.664 0-3.148-0.374-4.451-1.123s-2.33-1.775-3.078-3.078v3.786h-4.867v-30.368h5.574v12.397c0.777-1.303 1.789-2.33 3.037-3.078 1.276-0.749 2.76-1.123 4.451-1.123 1.886 0 3.536 0.527 4.95 1.581 1.442 1.026 2.565 2.399 3.37 4.118s1.206 3.605 1.206 5.658c0 2.108-0.444 4.008-1.331 5.699s-2.108 3.037-3.661 4.035c-1.525 0.998-3.259 1.498-5.2 1.498zM81.663 26.074c1.193 0 2.233-0.291 3.12-0.874 0.915-0.582 1.622-1.359 2.122-2.33 0.527-0.998 0.79-2.080 0.79-3.245 0-1.192-0.25-2.288-0.749-3.286-0.471-1.026-1.137-1.844-1.997-2.454s-1.844-0.915-2.954-0.915c-1.22 0-2.343 0.416-3.37 1.248-0.998 0.804-1.747 1.803-2.246 2.995v5.2c0.361 1.082 1.068 1.969 2.122 2.662 1.054 0.666 2.108 0.998 3.162 0.998z"></path>
<path fill="#000" style="fill: var(--color4, #000)" d="M116.557 8.602c-0.25-0.277-0.776-0.638-1.581-1.082-0.804-0.471-1.775-0.887-2.912-1.248-1.109-0.388-2.26-0.582-3.453-0.582-3.134 0-4.701 1.109-4.701 3.328 0 0.804 0.25 1.442 0.749 1.914s1.248 0.874 2.246 1.206c0.998 0.333 2.246 0.693 3.744 1.082 1.941 0.499 3.619 1.082 5.034 1.747 1.442 0.666 2.538 1.553 3.286 2.662 0.777 1.082 1.165 2.524 1.165 4.326 0 2.108-0.513 3.813-1.539 5.117-0.998 1.276-2.33 2.205-3.994 2.787s-3.467 0.874-5.408 0.874c-2.219 0-4.423-0.333-6.614-0.998-2.163-0.693-4.091-1.636-5.782-2.829l2.538-4.95c0.25 0.25 0.693 0.582 1.331 0.998 0.638 0.388 1.414 0.79 2.33 1.206 0.915 0.388 1.914 0.721 2.995 0.998s2.177 0.416 3.286 0.416c3.162 0 4.742-1.012 4.742-3.037 0-0.86-0.319-1.553-0.957-2.080s-1.539-0.971-2.704-1.331c-1.137-0.36-2.468-0.763-3.994-1.206-1.886-0.527-3.453-1.109-4.701-1.747-1.22-0.666-2.135-1.484-2.746-2.454-0.61-0.998-0.915-2.26-0.915-3.786 0-2.025 0.472-3.716 1.414-5.075 0.971-1.387 2.274-2.427 3.91-3.12 1.636-0.721 3.453-1.082 5.45-1.082 2.052 0 3.966 0.333 5.741 0.998s3.3 1.428 4.576 2.288l-2.538 4.659zM137.755 29.277c-0.749 0.333-1.678 0.666-2.787 0.998-1.082 0.333-2.205 0.499-3.37 0.499-1.026 0-1.969-0.18-2.829-0.541s-1.553-0.929-2.080-1.706c-0.499-0.804-0.749-1.844-0.749-3.12v-12.522h-2.87v-4.285h2.87v-7.072h5.574v7.072h4.576v4.285h-4.576v10.65c0 0.749 0.194 1.29 0.582 1.622 0.416 0.333 0.915 0.499 1.498 0.499s1.151-0.097 1.706-0.291c0.555-0.194 0.998-0.36 1.331-0.499l1.123 4.41zM141.698 22.246v-13.645h5.574v12.438c0 3.356 1.206 5.034 3.619 5.034 1.082 0 2.122-0.319 3.12-0.957 1.026-0.666 1.858-1.664 2.496-2.995v-13.52h5.574v15.558c0 0.61 0.098 1.040 0.291 1.29 0.194 0.222 0.541 0.36 1.040 0.416v4.534c-0.555 0.111-1.026 0.18-1.414 0.208-0.36 0.028-0.693 0.042-0.998 0.042-0.998 0-1.816-0.222-2.454-0.666-0.61-0.472-0.971-1.109-1.082-1.914l-0.125-1.747c-0.971 1.498-2.219 2.621-3.744 3.37s-3.203 1.123-5.034 1.123c-2.246 0-3.952-0.721-5.117-2.163-1.165-1.47-1.747-3.605-1.747-6.406zM167.538 19.501c0-2.080 0.416-3.98 1.248-5.699s1.984-3.078 3.453-4.077c1.47-0.998 3.149-1.498 5.034-1.498 1.61 0 3.051 0.402 4.326 1.206 1.304 0.777 2.317 1.775 3.037 2.995v-12.397h5.574v24.128c0 0.61 0.098 1.040 0.291 1.29 0.195 0.222 0.528 0.36 0.998 0.416v4.534c-0.998 0.194-1.789 0.291-2.371 0.291-0.998 0-1.83-0.25-2.496-0.749-0.637-0.499-0.998-1.151-1.082-1.955l-0.083-1.373c-0.803 1.359-1.899 2.399-3.286 3.12-1.358 0.721-2.787 1.082-4.285 1.082-2.024 0-3.813-0.499-5.366-1.498-1.552-1.026-2.773-2.385-3.661-4.077-0.886-1.72-1.331-3.633-1.331-5.741zM184.635 22.413v-5.2c-0.443-1.22-1.206-2.233-2.288-3.037s-2.19-1.206-3.328-1.206c-1.136 0-2.134 0.319-2.995 0.957-0.859 0.61-1.525 1.428-1.997 2.454-0.47 0.998-0.707 2.080-0.707 3.245 0 1.192 0.264 2.288 0.79 3.286 0.528 0.971 1.235 1.747 2.122 2.33 0.915 0.555 1.955 0.832 3.12 0.832 1.054 0 2.094-0.347 3.12-1.040 1.054-0.693 1.776-1.567 2.163-2.621zM196.93 5.565v-5.533h5.574v5.533h-5.574zM196.93 30.4v-21.798h5.574v21.798h-5.574zM218.848 30.816c-2.386 0-4.437-0.513-6.157-1.539-1.691-1.054-2.995-2.44-3.91-4.16s-1.373-3.578-1.373-5.574c0-2.024 0.458-3.897 1.373-5.616 0.942-1.719 2.261-3.092 3.952-4.118 1.72-1.054 3.758-1.581 6.115-1.581s4.382 0.527 6.074 1.581c1.72 1.026 3.037 2.399 3.952 4.118s1.373 3.592 1.373 5.616c0 1.997-0.458 3.855-1.373 5.574s-2.232 3.106-3.952 4.16c-1.691 1.026-3.717 1.539-6.074 1.539zM213.149 19.542c0 1.276 0.25 2.413 0.749 3.411 0.499 0.971 1.179 1.733 2.038 2.288s1.83 0.832 2.912 0.832c1.054 0 2.011-0.277 2.87-0.832 0.859-0.582 1.539-1.359 2.038-2.33 0.526-0.998 0.79-2.136 0.79-3.411 0-1.248-0.264-2.357-0.79-3.328-0.499-0.998-1.179-1.775-2.038-2.33-0.859-0.582-1.816-0.874-2.87-0.874-1.082 0-2.053 0.291-2.912 0.874-0.859 0.555-1.539 1.331-2.038 2.33-0.499 0.971-0.749 2.094-0.749 3.37z"></path>
</symbol>
<symbol id="icon-astronaut" viewBox="0 0 32 32">
<path fill="#2196f3" style="fill: var(--color3, #2196f3)" d="M31.974 4.524c-0.063-0.193-0.229-0.333-0.43-0.363l-1.91-0.278-0.855-1.731c-0.179-0.365-0.777-0.365-0.956 0l-0.855 1.731-1.91 0.278c-0.201 0.029-0.367 0.17-0.431 0.363-0.062 0.193-0.011 0.405 0.135 0.547l1.383 1.348-0.326 1.903c-0.034 0.2 0.048 0.402 0.212 0.522 0.166 0.121 0.382 0.135 0.562 0.040l1.709-0.899 1.709 0.899c0.078 0.041 0.164 0.061 0.249 0.061 0.11 0 0.221-0.034 0.314-0.102 0.164-0.119 0.246-0.322 0.212-0.522l-0.326-1.903 1.383-1.348c0.145-0.142 0.197-0.354 0.135-0.547zM29.511 5.851c-0.125 0.122-0.183 0.299-0.153 0.472l0.191 1.114-1-0.526c-0.078-0.041-0.163-0.061-0.249-0.061s-0.17 0.020-0.249 0.061l-1.001 0.526 0.191-1.114c0.030-0.173-0.028-0.349-0.153-0.472l-0.81-0.789 1.119-0.163c0.174-0.025 0.324-0.134 0.402-0.292l0.5-1.013 0.5 1.013c0.078 0.157 0.228 0.267 0.402 0.292l1.119 0.163-0.809 0.789z"></path>
<path fill="#2196f3" style="fill: var(--color3, #2196f3)" d="M26.134 20.522h-1.067v1.067h1.067v-1.067z"></path>
<path fill="#2196f3" style="fill: var(--color3, #2196f3)" d="M26.134 22.656h-1.067v1.067h1.067v-1.067z"></path>
<path fill="#2196f3" style="fill: var(--color3, #2196f3)" d="M27.2 21.589h-1.067v1.067h1.067v-1.067z"></path>
<path fill="#2196f3" style="fill: var(--color3, #2196f3)" d="M25.067 21.589h-1.067v1.067h1.067v-1.067z"></path>
<path fill="#2196f3" style="fill: var(--color3, #2196f3)" d="M22.4 26.389h-1.067v1.067h1.067v-1.067z"></path>
<path fill="#2196f3" style="fill: var(--color3, #2196f3)" d="M22.4 28.522h-1.067v1.067h1.067v-1.067z"></path>
<path fill="#2196f3" style="fill: var(--color3, #2196f3)" d="M23.467 27.456h-1.067v1.067h1.067v-1.067z"></path>
<path fill="#2196f3" style="fill: var(--color3, #2196f3)" d="M21.333 27.456h-1.067v1.067h1.067v-1.067z"></path>
<path fill="#2196f3" style="fill: var(--color3, #2196f3)" d="M16 24.256h-1.067v1.067h1.067v-1.067z"></path>
<path fill="#2196f3" style="fill: var(--color3, #2196f3)" d="M16 26.389h-1.067v1.067h1.067v-1.067z"></path>
<path fill="#2196f3" style="fill: var(--color3, #2196f3)" d="M17.067 25.322h-1.067v1.067h1.067v-1.067z"></path>
<path fill="#2196f3" style="fill: var(--color3, #2196f3)" d="M14.933 25.322h-1.067v1.067h1.067v-1.067z"></path>
<path fill="#2196f3" style="fill: var(--color3, #2196f3)" d="M5.867 6.122h-1.067v1.067h1.067v-1.067z"></path>
<path fill="#2196f3" style="fill: var(--color3, #2196f3)" d="M5.867 8.255h-1.067v1.067h1.067v-1.067z"></path>
<path fill="#2196f3" style="fill: var(--color3, #2196f3)" d="M6.933 7.189h-1.067v1.067h1.067v-1.067z"></path>
<path fill="#2196f3" style="fill: var(--color3, #2196f3)" d="M4.8 7.189h-1.067v1.067h1.067v-1.067z"></path>
<path fill="#212121" style="fill: var(--color5, #212121)" d="M24.715 14.159c-0.287-0.388-0.709-0.637-1.188-0.705-0.481-0.068-0.956 0.058-1.34 0.352l-1.252 0.96-1.898 1.417-1.358-0.541c2.421-1.086 4.114-3.508 4.114-6.32 0-3.823-3.123-6.933-6.961-6.933s-6.961 3.11-6.961 6.933c0 1.386 0.414 2.674 1.12 3.758l-2.764-0.024c-0.002 0-0.003 0-0.005 0-0.009 0-0.015 0.004-0.023 0.005-0.053 0.002-0.105 0.013-0.155 0.031-0.013 0.005-0.026 0.008-0.038 0.013-0.006 0.003-0.013 0.003-0.019 0.006l-3.233 1.596c-0.001 0-0.001 0-0.001 0.001l-1.893 0.911c-0.021 0.009-0.042 0.021-0.063 0.035-0.755 0.502-1.012 1.489-0.598 2.295 0.22 0.429 0.595 0.745 1.056 0.889 0.178 0.055 0.359 0.083 0.539 0.083 0.29 0 0.577-0.071 0.839-0.211l1.388-0.738 2.264-1.169 1.357-0.008-5.442 5.416c-0.001 0.001-0.001 0.001-0.002 0.001l-1.339 1.333c-0.316 0.315-0.49 0.732-0.49 1.178s0.174 0.863 0.49 1.179c0.325 0.323 0.752 0.485 1.179 0.485s0.854-0.162 1.18-0.485l1.314-1.309 1.741-1.3 0.901 0.897-1.762 1.754c-0 0.001-0.001 0.001-0.002 0.001l-1.339 1.333c-0.316 0.315-0.49 0.732-0.49 1.178s0.174 0.863 0.49 1.179c0.325 0.323 0.753 0.485 1.18 0.485s0.855-0.162 1.18-0.485l3.482-3.467c0.001-0.001 0.001-0.001 0.001-0.002l1.010-1-0.004-0.004c0.006-0.006 0.015-0.009 0.022-0.015l5.166-5.658 3.471 0.494c0.025 0.004 0.050 0.005 0.075 0.005 0.065 0 0.127-0.015 0.187-0.038 0.018-0.006 0.033-0.015 0.050-0.023 0.019-0.010 0.039-0.015 0.058-0.027l3.213-2.133c0.012-0.008 0.018-0.021 0.029-0.029 0.013-0.010 0.029-0.014 0.041-0.026l1.271-1.191c0.662-0.62 0.753-1.635 0.212-2.362zM2.13 17.77c-0.173 0.093-0.37 0.111-0.558 0.052-0.187-0.058-0.338-0.186-0.427-0.358-0.161-0.314-0.068-0.695 0.214-0.902l1.314-0.632 0.449 1.312-0.992 0.528zM5.628 15.942l-1.548 0.8-0.439-1.283 2.027-1.001-0.040 1.484zM20.727 9.322c0 0.918-0.219 1.785-0.599 2.559l-4.181-1.899c-0.044-0.573-0.341-1.075-0.788-1.388l1.464-4.86c2.378 0.756 4.105 2.974 4.105 5.588zM8.938 9.322c0-3.235 2.644-5.867 5.894-5.867 0.253 0 0.5 0.021 0.745 0.052l-1.432 4.754c-0.019-0.001-0.037-0.006-0.057-0.006-1.033 0-1.873 0.837-1.873 1.867s0.84 1.867 1.873 1.867c0.694 0 1.294-0.383 1.618-0.945l3.862 1.755c-1.075 1.446-2.795 2.39-4.737 2.39-3.25 0-5.894-2.632-5.894-5.867zM14.894 10.122c0 0.441-0.362 0.8-0.806 0.8s-0.806-0.359-0.806-0.8c0-0.441 0.362-0.8 0.806-0.8s0.806 0.359 0.806 0.8zM2.465 25.146c-0.236 0.234-0.619 0.234-0.854 0.001-0.114-0.114-0.176-0.263-0.176-0.423s0.062-0.309 0.176-0.421l0.962-0.958 0.851 0.848-0.959 0.955zM5.679 28.88c-0.236 0.234-0.619 0.235-0.855 0.001-0.114-0.114-0.176-0.263-0.176-0.423s0.062-0.309 0.176-0.421l0.963-0.959 0.852 0.848-0.96 0.955zM9.16 25.411c-0.001 0-0.001 0-0.002 0.001l-1.765 1.76-0.852-0.848 1.763-1.755c0 0 0 0 0-0s0.001-0.001 0.002-0.001c0.040-0.040 0.065-0.088 0.090-0.135 0.007-0.014 0.020-0.026 0.026-0.040 0.017-0.041 0.019-0.085 0.026-0.129 0.003-0.025 0.014-0.047 0.014-0.073 0-0.036-0.013-0.070-0.020-0.106-0.006-0.032-0.006-0.065-0.019-0.095-0.020-0.050-0.055-0.094-0.091-0.138-0.010-0.012-0.014-0.027-0.025-0.038 0 0 0 0-0.001 0s-0.001-0.002-0.001-0.002l-1.607-1.6c-0.017-0.017-0.039-0.024-0.058-0.038-0.028-0.022-0.055-0.042-0.087-0.058-0.030-0.015-0.061-0.024-0.093-0.033-0.034-0.010-0.067-0.017-0.103-0.020-0.033-0.002-0.063 0.001-0.095 0.005-0.036 0.004-0.069 0.009-0.104 0.020-0.034 0.011-0.063 0.027-0.094 0.045-0.020 0.011-0.042 0.015-0.061 0.029l-1.773 1.324-0.901-0.897 2.399-2.386 4.361 4.289-0.928 0.919zM15.979 18.394c-0.015-0.002-0.030 0.004-0.045 0.003-0.039-0.002-0.076 0.001-0.115 0.007-0.030 0.005-0.059 0.011-0.088 0.021-0.034 0.012-0.065 0.028-0.097 0.047-0.030 0.018-0.057 0.037-0.083 0.061-0.013 0.011-0.028 0.017-0.040 0.029l-4.698 5.146-4.328-4.257 2.833-2.818c0.209-0.208 0.21-0.546 0.002-0.755-0.105-0.105-0.243-0.157-0.381-0.156v-0.001l-2.219 0.013 0.028-1.607 3.104 0.027c1.265 1.294 3.029 2.101 4.981 2.101 0.437 0 0.864-0.045 1.279-0.123 0.040 0.032 0.079 0.065 0.13 0.085l2.41 0.96 0.331 1.644-3.003-0.427zM20.020 18.572l-0.313-1.558 1.446-1.080 0.947 1.257-2.080 1.381zM23.774 15.741l-0.838 0.785-0.931-1.236 0.831-0.637c0.155-0.119 0.351-0.168 0.543-0.143 0.193 0.027 0.364 0.128 0.48 0.284 0.217 0.292 0.18 0.699-0.085 0.947z"></path>
<path fill="#212121" style="fill: var(--color5, #212121)" d="M13.602 18.544l-2.143-2.133c-0.207-0.207-0.545-0.207-0.753 0l-2.142 2.133c-0.1 0.101-0.157 0.236-0.157 0.378s0.056 0.278 0.157 0.378l2.142 2.133c0.104 0.103 0.241 0.155 0.377 0.155s0.273-0.052 0.376-0.155l2.143-2.133c0.1-0.1 0.157-0.236 0.157-0.378s-0.057-0.278-0.157-0.378zM11.083 20.303l-1.387-1.381 1.387-1.381 1.387 1.381-1.387 1.381z"></path>
<path fill="#212121" style="fill: var(--color5, #212121)" d="M17.164 5.071l-0.258 1.036c0.071 0.018 1.738 0.452 1.738 2.149h1.067c-0-2.017-1.666-2.965-2.547-3.185z"></path>
<path fill="#212121" style="fill: var(--color5, #212121)" d="M19.711 9.322h-1.067v1.067h1.067v-1.067z"></path>
</symbol>
<symbol id="icon-clock" viewBox="0 0 32 32">
<path fill="#212121" style="fill: var(--color5, #212121)" d="M31.297 15.301c-0.002-8.452-6.855-15.303-15.308-15.301s-15.303 6.855-15.301 15.308c0.001 6.658 4.307 12.551 10.649 14.576 0.061 0.019 0.124 0.029 0.187 0.029 0.121-0 0.239-0.032 0.342-0.094 0.135-0.080 0.236-0.207 0.283-0.356l3.865-12.25c1.057-0.005 1.909-0.866 1.903-1.923s-0.866-1.909-1.923-1.903c-0.284 0.001-0.565 0.067-0.82 0.191l-5.106-5.107c-0.253-0.245-0.657-0.238-0.902 0.016-0.239 0.247-0.239 0.639 0 0.886l5.103 5.109c-0.392 0.799-0.168 1.764 0.536 2.309l-3.683 11.673c-7.278-2.681-11.004-10.754-8.323-18.032s10.754-11.004 18.032-8.323 11.004 10.754 8.323 18.032c-1.31 3.556-4.001 6.431-7.462 7.973l-0.398-1.874c-0.073-0.344-0.411-0.565-0.756-0.492-0.109 0.023-0.209 0.074-0.292 0.148l-3.837 3.426c-0.263 0.234-0.287 0.637-0.052 0.9 0.076 0.085 0.174 0.149 0.283 0.184l4.899 1.563c0.335 0.108 0.694-0.077 0.802-0.412 0.034-0.106 0.040-0.219 0.017-0.328l-0.391-1.839c5.664-2.388 9.342-7.942 9.329-14.089zM15.992 14.664c0.352 0 0.638 0.286 0.638 0.638s-0.286 0.638-0.638 0.638c-0.352 0-0.638-0.285-0.638-0.638s0.285-0.638 0.638-0.638zM18.093 29.528l2.184-1.948 0.603 2.84-2.787-0.892z"></path>
<path fill="#2196f3" style="fill: var(--color3, #2196f3)" d="M15.354 3.185v1.275c0 0.352 0.285 0.638 0.638 0.638s0.638-0.285 0.638-0.638v-1.275c0-0.352-0.286-0.638-0.638-0.638s-0.638 0.286-0.638 0.638z"></path>
<path fill="#2196f3" style="fill: var(--color3, #2196f3)" d="M3.876 14.664c-0.352 0-0.638 0.286-0.638 0.638s0.285 0.638 0.638 0.638h1.275c0.352 0 0.638-0.285 0.638-0.638s-0.285-0.638-0.638-0.638h-1.275z"></path>
<path fill="#2196f3" style="fill: var(--color3, #2196f3)" d="M28.108 15.939c0.352 0 0.638-0.285 0.638-0.638s-0.285-0.638-0.638-0.638h-1.275c-0.352 0-0.638 0.286-0.638 0.638s0.286 0.638 0.638 0.638h1.275z"></path>
</symbol>
<symbol id="icon-antenna" viewBox="0 0 32 32">
<path fill="#212121" style="fill: var(--color5, #212121)" d="M30.773 22.098l-8.443-8.505 0.937-4.615c0.242 0.094 0.499 0.144 0.758 0.146h0.006c1.192 0.014 2.17-0.941 2.184-2.133s-0.941-2.17-2.133-2.184c-1.192-0.014-2.17 0.941-2.184 2.133-0.003 0.255 0.039 0.509 0.125 0.749l-4.96 0.605-8.091-8.133c-0.099-0.101-0.235-0.159-0.377-0.16-0.14 0.001-0.274 0.056-0.373 0.155l-1.513 1.504c-0.208 0.208-0.208 0.546 0 0.754l0.814 0.826c-3.153 5.798-2.129 12.978 2.519 17.663 0.043 0.041 0.092 0.074 0.146 0.098-0.034 0.18-0.051 0.364-0.052 0.547v6.187h-6.4c-1.472 0.002-2.665 1.195-2.667 2.667v1.067c0 0.295 0.239 0.533 0.533 0.533h24.533c0.295 0 0.533-0.239 0.533-0.533v-1.067c-0.002-1.472-1.195-2.665-2.667-2.667h-6.4v-2.742c1.003 0.21 2.024 0.317 3.049 0.32 2.458-0.003 4.877-0.615 7.040-1.783l0.818 0.823c0.099 0.101 0.235 0.159 0.377 0.16 0.14-0.001 0.274-0.056 0.373-0.155l1.513-1.504c0.208-0.208 0.208-0.546 0-0.754zM23.28 6.233c0.418-0.415 1.093-0.414 1.508 0.004s0.414 1.093-0.004 1.508c-0.2 0.199-0.47 0.31-0.752 0.31h-0.003c-0.589-0.003-1.064-0.483-1.061-1.072 0.002-0.282 0.115-0.552 0.314-0.751h-0.002zM22.024 9.738l-0.598 2.946-1.175-1.182 1.774-1.763zM21.419 8.836l-1.92 1.909-1.485-1.493 3.405-0.415zM24.004 28.8c0.884 0 1.6 0.716 1.6 1.6v0.533h-23.467v-0.533c0-0.884 0.716-1.6 1.6-1.6h20.267zM16.537 26.667v1.067h-5.333v-1.067h5.333zM11.204 25.6v-4.053c0-1.294 1.196-2.347 2.667-2.347s2.667 1.053 2.667 2.347v4.053h-5.333zM17.604 23.904v-2.357c0-1.882-1.675-3.413-3.733-3.413-1.331-0.020-2.576 0.657-3.281 1.786-4.058-4.274-4.971-10.645-2.279-15.887l18.602 18.708c-2.872 1.461-6.165 1.873-9.309 1.163zM28.893 23.22l-21.057-21.181 0.755-0.752 7.935 7.98c0.004 0 0.006 0.007 0.010 0.010l13.115 13.191-0.757 0.752z"></path>
<path fill="#2196f3" style="fill: var(--color3, #2196f3)" d="M13.876 20.267h-0.005c-0.884-0.001-1.601 0.714-1.602 1.598s0.714 1.601 1.598 1.602h0.005c0.884 0.001 1.601-0.714 1.602-1.598s-0.714-1.601-1.598-1.602zM14.249 22.245c-0.1 0.1-0.236 0.156-0.378 0.155-0.295-0.002-0.532-0.242-0.531-0.536 0.001-0.141 0.057-0.276 0.157-0.375s0.233-0.154 0.373-0.155c0.295 0.002 0.532 0.241 0.53 0.536-0.001 0.141-0.057 0.276-0.157 0.375h0.005z"></path>
</symbol>
<symbol id="icon-smartphone" viewBox="0 0 20 32">
<path fill="#757575" style="fill: var(--color6, #757575)" d="M17 0h-14c-1.654 0-3 1.346-3 3v26c0 1.654 1.346 3 3 3h14c1.654 0 3-1.346 3-3v-26c0-1.654-1.346-3-3-3zM3 2h14c0.552 0 1 0.448 1 1v21h-16v-21c0-0.552 0.448-1 1-1zM17 30h-14c-0.552 0-1-0.448-1-1v-3h16v3c0 0.552-0.448 1-1 1z"></path>
<path fill="#757575" style="fill: var(--color6, #757575)" d="M4.707 27.478c0.391 0.365 0.391 0.956 0 1.321s-1.024 0.365-1.414 0c-0.391-0.365-0.391-0.956 0-1.321s1.024-0.365 1.414 0z"></path>
</symbol>
<symbol id="icon-envelope-hover" viewBox="0 0 43 32">
<path fill="#2196f3" style="fill: var(--color3, #2196f3)" d="M38.667 0h-34.667c-2.206 0-4 1.794-4 4v24c0 2.206 1.794 4 4 4h34.667c2.206 0 4-1.794 4-4v-24c0-2.206-1.794-4-4-4v0zM38.667 2.667c0.181 0 0.353 0.038 0.511 0.103l-17.844 15.466-17.844-15.466c0.158-0.066 0.33-0.103 0.511-0.103h34.667zM38.667 29.333h-34.667c-0.736 0-1.333-0.598-1.333-1.333v-22.413l17.793 15.421c0.251 0.217 0.563 0.326 0.874 0.326s0.622-0.108 0.874-0.326l17.793-15.421v22.413c0 0.736-0.598 1.333-1.333 1.333v0z"></path>
</symbol>
</defs>
</svg>
